<?xml version="1.0" standalone="no"?>
<!DOCTYPE svg PUBLIC "-//W3C//DTD SVG 20010904//EN"
 "http://www.w3.org/TR/2001/REC-SVG-20010904/DTD/svg10.dtd">
<svg version="1.0" xmlns="http://www.w3.org/2000/svg"
 width="335.000000pt" height="510.000000pt" viewBox="0 0 335.000000 510.000000"
 preserveAspectRatio="xMidYMid meet">

<g transform="translate(0.000000,510.000000) scale(0.100000,-0.100000)"
fill="#000000" stroke="none">
<path d="M1415 4781 c-22 -4 -66 -17 -98 -30 -46 -19 -60 -21 -72 -11 -12 10
-32 4 -107 -35 -51 -26 -106 -58 -123 -72 -16 -13 -58 -46 -92 -74 -61 -49
-164 -166 -216 -244 -40 -61 -68 -150 -77 -250 -5 -49 -12 -110 -15 -135 -15
-101 -5 -228 20 -266 8 -13 14 -24 12 -24 -2 0 3 -30 10 -67 8 -38 15 -78 15
-90 0 -13 4 -23 9 -23 19 0 9 -59 -11 -70 -28 -15 -25 -30 8 -30 15 0 50 -8
77 -18 l50 -18 8 -69 c7 -62 1 -99 -10 -67 -7 18 -33 15 -40 -5 -3 -10 -15
-28 -26 -40 -18 -20 -19 -27 -8 -62 13 -44 35 -71 57 -71 11 0 8 10 -11 40
-14 22 -25 43 -25 47 1 9 71 55 76 50 2 -2 7 -31 10 -65 6 -53 5 -62 -10 -62
-20 0 -21 -16 -1 -23 22 -9 45 -74 45 -127 0 -33 5 -50 14 -53 8 -3 22 -29 30
-58 9 -29 29 -73 45 -98 57 -88 71 -133 64 -209 -7 -80 2 -151 21 -178 12 -16
13 -13 9 31 -3 28 -9 57 -13 65 -4 8 -5 33 -1 55 l6 40 22 -30 c20 -29 70 -81
180 -188 27 -26 52 -44 57 -40 4 4 6 2 4 -6 -2 -9 10 -17 32 -23 19 -5 51 -23
71 -39 20 -16 44 -29 52 -29 8 0 17 -5 19 -11 6 -17 146 -39 207 -32 44 5 62
13 90 40 19 18 40 33 47 33 7 0 17 7 22 15 4 9 21 17 36 19 17 2 32 12 41 29
20 38 25 44 122 139 l22 22 11 -28 c5 -15 10 -32 10 -37 0 -5 5 -9 11 -9 6 0
9 7 5 15 -3 10 1 15 12 15 10 0 13 3 7 8 -6 4 -10 21 -10 39 0 45 11 28 19
-29 4 -29 3 -48 -2 -48 -6 0 -10 -6 -9 -12 1 -36 -4 -47 -18 -42 -10 4 -14 14
-10 28 5 17 4 18 -4 5 -16 -25 -2 -61 20 -54 22 7 24 -1 5 -36 -7 -14 -12 -40
-11 -57 1 -18 -3 -32 -9 -32 -7 0 -6 -3 1 -8 10 -6 9 -14 -3 -36 -8 -16 -12
-31 -10 -33 2 -3 -5 -35 -16 -71 -10 -37 -21 -71 -22 -77 -2 -5 -10 -27 -20
-47 -9 -21 -16 -44 -16 -52 0 -8 -5 -18 -10 -21 -6 -4 -8 -11 -5 -16 4 -5 3
-15 -2 -21 -4 -7 -8 -19 -10 -27 -1 -8 -8 -18 -15 -22 -7 -5 -9 -9 -4 -9 5 0
3 -7 -4 -15 -7 -8 -9 -15 -4 -15 16 1 41 25 57 55 8 17 27 38 41 48 15 12 23
25 20 35 -4 13 -3 13 6 -1 7 -12 9 -33 5 -55 -4 -20 -9 -64 -11 -97 -3 -33
-18 -104 -35 -158 -17 -55 -28 -101 -26 -104 5 -5 41 86 53 132 3 14 8 24 11
21 5 -5 -8 -110 -38 -296 -10 -69 -40 -269 -64 -445 -75 -532 -73 -524 -74
-228 -1 204 -4 254 -15 266 -8 8 -22 43 -31 78 -21 83 -46 151 -90 243 -19 41
-35 81 -35 90 0 22 17 20 24 -1 4 -15 5 -15 4 2 -1 53 2 64 17 59 8 -4 18 -17
21 -30 7 -26 12 -28 33 -15 12 8 9 26 -18 110 -42 135 -79 212 -140 298 -49
69 -53 72 -84 66 -40 -7 -41 -7 -88 -84 -25 -40 -56 -118 -85 -209 -25 -80
-55 -160 -66 -177 -15 -25 -16 -33 -6 -33 8 0 18 15 23 32 8 26 16 34 37 36
21 3 29 10 34 30 3 15 11 37 17 50 8 18 12 20 19 8 5 -8 -3 -38 -21 -77 -16
-35 -43 -102 -60 -149 -18 -47 -46 -121 -62 -165 -35 -92 -79 -322 -72 -377 4
-27 0 -42 -15 -58 l-20 -22 -11 54 c-6 29 -22 121 -36 203 -14 83 -34 195 -45
250 -59 308 -83 430 -104 515 -13 52 -27 115 -30 140 l-6 45 21 -30 c12 -16
19 -23 16 -15 -26 81 -69 380 -74 512 -5 102 -2 140 11 189 10 33 16 62 14 64
-2 3 -33 -34 -68 -80 -35 -47 -73 -93 -84 -104 -27 -25 -195 -91 -548 -216
l-278 -98 0 -963 0 -964 640 0 c564 0 640 2 640 15 0 8 9 23 20 32 11 10 20
23 20 30 0 7 9 13 20 13 17 0 19 -4 14 -28 -4 -15 -11 -35 -16 -44 -8 -17 1
-18 117 -18 77 0 125 4 125 10 0 6 7 10 15 10 8 0 15 9 15 20 0 11 7 20 15 20
10 0 15 -10 15 -30 l0 -30 855 0 855 0 0 935 0 936 -63 28 c-151 68 -587 227
-854 312 -65 21 -110 43 -152 75 -71 53 -131 120 -131 146 0 10 16 60 35 111
47 122 50 129 76 219 15 54 27 79 40 83 15 5 17 10 9 25 -14 26 -5 80 20 131
12 23 18 44 13 48 -8 5 -9 25 -4 124 1 17 3 17 23 3 15 -10 26 -12 39 -6 14 8
15 14 6 35 -7 14 -22 28 -34 31 -21 6 -23 12 -23 64 0 68 12 82 71 84 45 3 61
19 53 53 -4 13 -3 31 2 40 4 10 8 29 9 43 5 56 17 136 22 150 4 8 5 21 4 28
-1 6 2 12 6 12 20 0 30 63 27 175 -2 66 -3 136 -3 155 0 63 -12 106 -37 133
-13 14 -24 30 -24 34 0 4 -6 20 -14 34 -7 14 -16 42 -20 61 -3 20 -20 54 -36
77 -17 22 -30 44 -30 48 0 5 -16 21 -35 36 -25 20 -34 34 -30 46 6 19 -31 51
-59 51 -8 0 -25 13 -39 29 -14 17 -27 27 -30 24 -3 -3 -27 11 -52 31 -44 33
-68 42 -135 50 -31 4 -58 15 -89 35 -13 8 -37 14 -51 13 -15 -2 -45 4 -66 14
-29 12 -72 17 -169 19 -71 1 -139 4 -150 7 -11 3 -38 2 -60 -1z m-195 -205 c0
-2 -7 -7 -16 -10 -8 -3 -12 -2 -9 4 6 10 25 14 25 6z m543 -617 c32 -17 39
-18 28 -5 -12 14 -9 16 25 17 22 1 44 0 49 -1 6 -2 18 -3 27 -4 9 0 15 -2 13
-5 -3 -2 4 -11 15 -18 11 -8 17 -19 14 -25 -4 -6 1 -8 15 -3 28 9 27 -3 -1
-15 -20 -8 -21 -9 -4 -9 11 -1 33 11 48 26 15 15 28 21 28 15 0 -7 5 -12 10
-12 6 0 10 9 10 20 0 11 5 20 10 20 6 0 10 -9 10 -19 0 -26 29 -35 51 -15 12
11 19 13 19 5 0 -7 4 -10 10 -6 13 8 28 -55 36 -155 4 -47 7 -92 8 -100 1 -8
7 -25 14 -37 10 -19 10 -23 0 -23 -10 0 -10 -2 0 -9 7 -4 12 -14 10 -22 -2 -8
3 -13 9 -12 9 2 11 -7 6 -29 -5 -25 -3 -30 9 -26 18 7 45 -22 54 -58 6 -24 5
-25 -27 -20 -19 3 -54 8 -78 11 -29 4 -50 13 -62 29 -17 22 -33 28 -114 44
-16 3 -70 6 -120 6 -93 1 -86 3 -203 -60 -21 -11 -22 -13 -7 -22 14 -7 10 -12
-24 -25 -23 -10 -61 -17 -86 -17 -56 0 -128 27 -121 46 3 8 1 14 -5 14 -6 0
-8 4 -5 9 7 11 -92 44 -132 44 -62 1 -223 -14 -246 -23 -13 -5 -30 -17 -37
-28 -11 -14 -31 -20 -81 -25 -38 -3 -68 -3 -68 1 0 4 7 16 15 26 8 11 15 30
15 43 0 13 6 26 13 29 8 3 14 19 15 37 1 18 9 51 18 72 10 22 17 43 16 46 0 3
17 16 39 28 21 12 39 26 39 30 0 17 69 95 85 97 10 1 22 7 28 13 6 6 17 11 25
11 7 0 28 11 45 24 41 30 56 34 147 41 124 9 171 15 181 20 4 3 41 8 80 10 40
3 75 7 77 10 8 7 9 7 55 -16z m-608 -479 c-21 -8 -21 -8 50 -23 11 -3 -23 -5
-74 -6 -58 -1 -91 3 -85 8 12 12 72 29 104 29 23 1 23 0 5 -8z m838 -17 c-13
-2 -33 -2 -45 0 -13 2 -3 4 22 4 25 0 35 -2 23 -4z m167 -53 c70 -13 83 -37
77 -137 -6 -104 -28 -151 -82 -178 -35 -17 -60 -20 -195 -20 -182 0 -209 8
-245 70 -27 46 -33 70 -10 39 19 -25 19 -10 0 54 -15 48 -34 69 -36 40 0 -7
-5 2 -11 21 -8 28 -6 39 10 60 10 14 29 28 42 29 23 4 23 3 7 -21 -14 -22 -14
-27 -1 -37 13 -11 13 -16 -1 -36 -14 -22 -12 -28 6 -26 4 1 5 -7 2 -17 -4 -16
5 -22 54 -37 80 -24 178 -30 211 -13 26 13 122 102 122 113 0 3 -6 6 -13 6 -8
0 -27 12 -43 26 -41 36 -84 53 -157 61 -62 8 -62 8 -22 15 46 8 220 1 285 -12z
m-983 -1 c-21 -5 -52 -16 -69 -25 -20 -10 -33 -13 -36 -6 -6 18 -42 0 -48 -24
-7 -28 19 -74 41 -74 8 0 19 -9 25 -19 7 -14 20 -19 42 -19 74 2 172 -5 158
-11 -8 -3 -16 -12 -18 -20 -2 -10 4 -12 25 -6 15 5 41 9 58 11 37 3 84 52 63
65 -11 8 -11 11 1 18 7 5 10 14 7 20 -4 6 0 11 8 11 21 0 20 30 -1 46 -19 14
-7 19 13 6 13 -8 34 -46 34 -61 0 -6 -9 -19 -21 -29 -25 -24 -58 -122 -34
-102 21 18 18 2 -8 -45 -32 -57 -76 -76 -195 -82 -110 -6 -224 9 -269 37 -38
23 -58 88 -58 187 0 55 4 76 17 89 20 20 141 42 238 42 59 0 62 -1 27 -9z
m1183 -14 c0 -18 -4 -23 -15 -19 -8 4 -15 15 -15 25 0 10 7 19 15 19 9 0 15
-9 15 -25z m-1527 9 c44 -8 51 -34 10 -34 -16 0 -38 -3 -50 -6 -20 -5 -23 -2
-23 20 0 28 4 29 63 20z m1487 -9 c0 -10 -10 -15 -30 -15 -20 0 -30 5 -30 15
0 10 10 15 30 15 20 0 30 -5 30 -15z m-1145 -15 c-27 -12 -43 -12 -25 0 8 5
22 9 30 9 10 0 8 -3 -5 -9z m691 -91 c20 -19 29 -21 52 -13 15 5 34 24 43 41
14 28 18 31 33 20 13 -9 16 -20 11 -40 -4 -15 -11 -30 -16 -33 -18 -11 -93
-13 -111 -3 -14 7 -24 7 -34 -2 -8 -6 -18 -9 -21 -5 -4 4 -1 11 6 15 10 7 9
10 -8 16 -26 8 -29 52 -3 71 15 11 17 9 20 -15 2 -16 14 -39 28 -52z m-596 61
c0 -5 -4 -10 -10 -10 -5 0 -10 5 -10 10 0 6 5 10 10 10 6 0 10 -4 10 -10z m58
-2 c19 -19 14 -54 -10 -67 l-23 -11 23 6 c12 3 22 1 22 -5 0 -14 9 -12 -88
-17 -91 -5 -128 7 -129 43 0 18 24 53 36 53 4 0 12 -13 18 -30 15 -39 55 -58
87 -41 26 14 50 57 41 72 -9 13 9 11 23 -3z m602 2 c0 -5 -4 -10 -10 -10 -5 0
-10 5 -10 10 0 6 5 10 10 10 6 0 10 -4 10 -10z m-710 -10 c0 -5 -4 -10 -10
-10 -5 0 -10 5 -10 10 0 6 5 10 10 10 6 0 10 -4 10 -10z m660 0 c0 -5 -4 -10
-10 -10 -5 0 -10 5 -10 10 0 6 5 10 10 10 6 0 10 -4 10 -10z m-282 -22 c5 -7
23 -46 40 -86 43 -103 111 -201 140 -202 23 0 30 15 10 23 -7 2 41 2 108 -1
127 -5 236 8 286 34 41 21 58 53 73 139 13 76 27 106 42 91 16 -16 8 -209 -11
-278 -10 -37 -23 -65 -27 -62 -5 3 -6 -15 -3 -39 5 -33 2 -47 -11 -60 -9 -9
-12 -17 -6 -17 12 0 3 -54 -10 -58 -6 -3 -5 -9 2 -18 7 -8 7 -14 1 -14 -5 0
-13 -16 -16 -35 -4 -19 -11 -35 -16 -35 -5 0 -7 7 -4 15 4 8 1 15 -5 15 -6 0
-14 -12 -17 -27 -6 -24 -20 -40 -72 -84 -7 -6 -11 -17 -8 -24 2 -7 -8 -19 -22
-26 -46 -24 -80 -60 -75 -80 3 -11 0 -19 -6 -19 -6 0 -11 -12 -11 -27 0 -20
-3 -24 -9 -14 -7 10 -13 11 -30 2 -11 -7 -21 -16 -21 -21 0 -6 -6 -9 -12 -7
-7 1 -12 -4 -11 -10 2 -8 -8 -13 -28 -13 -20 0 -28 -4 -23 -11 5 -8 2 -9 -11
-2 -20 11 -55 6 -55 -8 0 -5 -10 -9 -22 -9 -48 0 -64 -3 -82 -19 -18 -15 -19
-15 -13 1 3 10 2 20 -3 23 -6 4 -10 -1 -10 -9 0 -9 -11 -18 -25 -22 -14 -3
-25 -10 -25 -15 0 -5 -12 -4 -27 2 -16 6 -54 12 -85 13 -31 1 -60 5 -64 8 -3
4 -12 4 -20 1 -10 -4 -12 0 -8 10 5 14 1 15 -24 7 -17 -4 -33 -6 -36 -2 -3 3
-6 0 -6 -7 0 -8 6 -11 16 -7 8 3 12 2 9 -4 -3 -6 -12 -10 -20 -10 -7 0 -15 -6
-18 -12 -7 -19 -19 -2 -19 26 0 14 -7 27 -15 30 -8 3 -11 10 -8 16 3 6 -1 7
-9 4 -11 -4 -16 0 -16 10 0 18 -15 22 -25 6 -10 -16 -25 -12 -18 5 3 9 -2 21
-11 28 -9 7 -23 24 -30 37 -7 14 -18 24 -24 23 -6 -2 -14 6 -17 17 -4 11 -13
20 -21 20 -8 0 -14 7 -14 15 0 8 -6 15 -14 15 -12 0 -30 33 -27 52 0 4 -8 12
-19 18 -11 6 -20 17 -20 24 0 8 -7 19 -15 26 -8 7 -13 16 -10 20 3 4 -2 10
-10 14 -8 3 -15 15 -15 26 0 11 -4 20 -8 20 -5 0 -13 26 -19 58 -6 31 -14 68
-18 82 -4 14 -8 33 -9 42 -1 10 -5 21 -9 24 -4 4 -7 17 -7 29 0 12 -3 25 -7
29 -10 10 -16 53 -28 209 -5 59 -3 78 4 67 6 -8 11 -32 11 -52 0 -51 37 -146
64 -163 55 -36 274 -57 383 -36 24 5 40 4 37 0 -3 -5 3 -9 13 -9 22 1 69 73
128 198 38 79 47 92 68 92 14 0 29 -6 35 -12z m277 -78 c3 -5 -3 -10 -15 -10
-12 0 -18 5 -15 10 3 6 10 10 15 10 5 0 12 -4 15 -10z m35 -10 c0 -5 -2 -10
-4 -10 -3 0 -8 5 -11 10 -3 6 -1 10 4 10 6 0 11 -4 11 -10z m237 -1012 c-3 -8
-6 -5 -6 6 -1 11 2 17 5 13 3 -3 4 -12 1 -19z m-17 -260 c0 -18 -2 -20 -9 -8
-6 8 -7 18 -5 22 9 14 14 9 14 -14z m-13 -50 c-3 -8 -6 -5 -6 6 -1 11 2 17 5
13 3 -3 4 -12 1 -19z m-473 -313 c8 -9 21 -14 27 -13 7 2 15 -5 17 -14 2 -13
-3 -18 -19 -18 -36 0 -129 34 -129 48 0 18 85 16 104 -3z m-158 -146 c10 -17
-13 -36 -27 -22 -12 12 -4 33 11 33 5 0 12 -5 16 -11z m42 -16 c-2 -9 -8 -18
-15 -20 -7 -3 -9 3 -6 16 6 25 26 28 21 4z m107 -75 c40 -18 30 -31 -20 -25
-51 5 -60 10 -50 26 8 14 38 14 70 -1z m115 -102 c0 -39 -6 -30 -13 19 -4 27
-3 35 3 25 5 -8 10 -28 10 -44z m-70 -7 c0 -5 -4 -9 -10 -9 -5 0 -10 7 -10 16
0 8 5 12 10 9 6 -3 10 -10 10 -16z m-90 -55 c0 -27 -24 -53 -47 -54 -18 0 -16
39 1 46 8 3 12 12 9 20 -3 9 2 14 16 14 16 0 21 -6 21 -26z m-142 -164 c-5
-17 -19 -36 -29 -44 -12 -8 -17 -19 -13 -30 4 -11 1 -16 -10 -16 -9 0 -16 7
-16 15 0 24 27 72 45 79 8 3 15 9 14 13 -3 17 1 24 10 18 6 -3 6 -17 -1 -35z
m247 10 c3 -5 1 -10 -4 -10 -6 0 -11 5 -11 10 0 6 2 10 4 10 3 0 8 -4 11 -10z
m-1 -63 c-3 -9 -13 -17 -21 -17 -10 0 -12 -6 -8 -20 5 -16 2 -20 -14 -20 -29
0 -28 48 0 79 19 20 23 21 36 9 7 -8 11 -22 7 -31z m-134 -99 c-1 -35 -20 -68
-39 -68 -7 0 -11 -8 -9 -17 2 -10 -4 -19 -14 -21 -13 -3 -18 3 -18 22 0 28 19
76 30 76 4 0 10 9 13 20 9 34 37 25 37 -12z m239 -61 c12 -15 5 -27 -16 -27
-7 0 -13 9 -13 20 0 23 13 26 29 7z m-19 -67 c0 -5 -4 -10 -9 -10 -6 0 -13 5
-16 10 -3 6 1 10 9 10 9 0 16 -4 16 -10z m-366 -32 c-3 -18 -16 -42 -28 -53
-11 -11 -21 -27 -21 -35 0 -8 -8 -16 -17 -18 -15 -3 -18 4 -18 32 0 20 5 36
10 36 6 0 10 6 10 14 0 8 7 16 15 20 8 3 15 12 15 21 0 8 9 15 20 15 17 0 19
-5 14 -32z m276 -15 c0 -20 -29 -73 -40 -73 -6 0 -10 -9 -10 -20 0 -20 -24
-28 -34 -12 -11 17 16 84 35 89 10 3 16 9 13 14 -8 14 5 29 21 22 8 -3 15 -12
15 -20z m-154 -137 c8 -20 -22 -86 -39 -86 -8 0 -14 -8 -13 -17 0 -10 -7 -19
-16 -21 -28 -6 -23 50 7 82 14 15 25 34 25 42 0 18 29 19 36 0z m274 -52 c0
-33 -17 -64 -34 -64 -9 0 -12 -7 -9 -21 5 -16 2 -20 -11 -18 -9 2 -17 7 -17
12 1 4 1 18 1 32 0 14 9 33 20 42 11 10 20 23 20 30 0 7 7 13 15 13 9 0 15
-10 15 -26z m-430 -123 c0 -16 -10 -37 -25 -51 -14 -13 -25 -29 -25 -37 0 -7
-9 -13 -20 -13 -16 0 -20 7 -20 30 0 17 4 30 8 30 4 0 19 17 32 39 28 43 50
44 50 2z m286 -33 c-7 -36 -23 -58 -41 -58 -8 0 -11 -8 -8 -20 4 -15 0 -20
-16 -20 -16 0 -21 6 -21 28 0 27 31 72 50 72 5 0 7 7 4 15 -4 11 0 15 16 15
20 0 22 -4 16 -32z m-154 -149 c-2 -16 -15 -39 -28 -52 -13 -12 -24 -28 -24
-34 0 -7 -9 -13 -21 -13 -18 0 -20 4 -14 33 4 17 18 42 31 54 13 12 24 25 24
28 -1 20 2 23 18 18 14 -3 17 -12 14 -34z m283 -21 c-15 -53 -28 -78 -42 -78
-8 0 -11 -4 -8 -10 9 -15 -4 -30 -20 -23 -27 10 -12 76 21 96 8 4 14 15 14 22
0 8 9 15 21 15 16 0 19 -4 14 -22z"/>
<path d="M2000 3905 c-10 -12 -10 -15 4 -15 9 0 16 7 16 15 0 8 -2 15 -4 15
-2 0 -9 -7 -16 -15z"/>
<path d="M2120 3900 c-13 -8 -12 -10 3 -10 9 0 17 5 17 10 0 12 -1 12 -20 0z"/>
<path d="M2180 3561 c0 -10 19 -25 25 -20 1 2 -3 10 -11 17 -8 7 -14 8 -14 3z"/>
<path d="M2156 3541 c-4 -5 -2 -12 3 -15 5 -4 12 -2 15 3 4 5 2 12 -3 15 -5 4
-12 2 -15 -3z"/>
<path d="M2206 3332 c-4 -13 -5 -26 -2 -29 10 -11 18 4 14 29 l-4 23 -8 -23z"/>
<path d="M1715 2901 c-27 -4 -63 -14 -80 -23 -52 -26 -117 -30 -153 -8 -18 11
-47 20 -65 20 -30 -1 -31 -1 -13 -15 11 -8 32 -15 48 -15 15 0 48 -10 73 -22
45 -22 47 -22 76 -5 17 9 44 17 60 17 33 0 79 20 98 44 8 9 12 15 10 15 -2 -1
-26 -5 -54 -8z"/>
<path d="M1449 2825 c-1 -3 -2 -10 -3 -17 0 -6 -14 -16 -31 -21 -16 -6 -32
-13 -35 -17 -12 -15 -39 -18 -51 -4 -9 11 -15 12 -26 2 -11 -9 -16 -9 -23 2
-7 11 -11 11 -24 1 -9 -8 -16 -22 -16 -32 0 -11 -5 -19 -11 -19 -6 0 -9 -6 -6
-12 2 -7 -2 -25 -9 -39 -9 -18 -11 -36 -5 -57 5 -17 7 -33 3 -36 -3 -3 2 -6
11 -6 10 0 14 -5 11 -15 -11 -28 20 -15 63 27 l43 42 35 -17 c34 -16 35 -16
35 3 0 19 7 20 118 20 64 1 138 2 165 2 26 1 50 -2 54 -5 3 -4 1 -7 -5 -7 -7
0 -12 -6 -12 -14 0 -8 -7 -17 -16 -20 -9 -4 -14 -9 -11 -12 6 -7 65 23 85 42
24 24 85 11 105 -22 13 -22 37 -16 47 12 16 41 12 77 -15 130 -21 43 -29 49
-52 48 -16 -1 -27 -7 -26 -13 4 -14 -18 -14 -54 0 -15 7 -38 11 -50 10 -13 0
-23 3 -23 8 0 12 -48 32 -54 22 -3 -5 -20 -11 -37 -15 -18 -3 -38 -14 -45 -24
-12 -16 -14 -16 -29 6 -9 12 -27 22 -40 22 -13 0 -30 7 -39 15 -15 15 -25 19
-27 10z m127 -90 c-3 -10 1 -15 14 -16 11 -1 25 -3 30 -4 6 -1 17 -3 25 -4 29
-2 14 -17 -32 -32 -40 -13 -55 -13 -90 -3 -34 10 -52 10 -102 -3 -34 -9 -63
-14 -65 -12 -2 2 -1 18 1 36 5 32 5 32 26 12 22 -20 42 -24 51 -10 3 5 15 7
26 4 12 -3 20 0 20 6 0 7 6 11 13 9 20 -4 67 12 67 22 0 6 5 10 11 10 6 0 9
-7 5 -15z m134 -45 c0 -5 -4 -10 -10 -10 -5 0 -10 5 -10 10 0 6 5 10 10 10 6
0 10 -4 10 -10z m44 4 c9 -3 16 -10 16 -15 0 -7 -18 -7 -48 0 -4 1 8 21 13 21
2 0 10 -3 19 -6z"/>
<path d="M1680 2533 c-19 -6 -69 -12 -111 -12 -74 -1 -139 -15 -139 -30 0 -9
69 -31 98 -31 11 0 22 -4 24 -10 4 -11 97 11 158 39 32 14 39 21 28 27 -8 5
-17 14 -19 19 -3 7 -16 6 -39 -2z"/>
<path d="M1255 2490 c-8 -13 15 -13 35 0 12 8 11 10 -7 10 -12 0 -25 -4 -28
-10z"/>
<path d="M2452 3353 c-21 -21 -33 -35 -28 -30 6 4 23 7 38 7 32 0 47 -27 49
-83 1 -63 18 4 18 76 1 61 -1 67 -19 67 -12 0 -38 -17 -58 -37z"/>
<path d="M647 3343 c-12 -11 -7 -147 6 -170 10 -19 12 -12 12 47 0 53 4 73 20
90 16 18 17 23 5 30 -18 11 -34 13 -43 3z"/>
<path d="M2390 3072 c-14 -11 -19 -21 -13 -25 11 -7 50 30 41 38 -3 3 -16 -3
-28 -13z"/>
<path d="M2434 3048 l-19 -23 23 19 c21 18 27 26 19 26 -2 0 -12 -10 -23 -22z"/>
<path d="M1096 2142 c10 -18 27 -41 38 -50 16 -15 15 -12 -3 20 -12 20 -29 42
-38 50 -13 10 -13 6 3 -20z"/>
<path d="M2024 2108 c-38 -64 -38 -65 -10 -35 14 15 26 32 26 38 0 13 -7 11
-16 -3z"/>
<path d="M1700 2040 c-18 -12 -2 -12 25 0 13 6 15 9 5 9 -8 0 -22 -4 -30 -9z"/>
<path d="M1642 2028 c-7 -7 -12 -17 -12 -22 0 -6 6 -4 13 5 7 9 19 18 27 22
13 5 13 6 0 6 -9 1 -21 -4 -28 -11z"/>
<path d="M1710 2014 c-67 -28 -167 -40 -210 -26 -49 18 -34 3 26 -25 39 -18
52 -28 43 -34 -18 -11 -11 -15 34 -23 38 -7 38 -7 34 22 -4 27 -1 31 33 42 29
10 122 74 100 69 -3 -1 -30 -12 -60 -25z"/>
<path d="M1585 1880 c-28 -7 -28 -8 10 -8 22 0 54 4 70 8 28 7 28 8 -10 8 -22
0 -53 -4 -70 -8z"/>
<path d="M1640 1760 c-19 -17 -30 -30 -25 -30 10 0 65 47 65 55 0 8 -3 6 -40
-25z"/>
<path d="M1560 1710 c0 -5 5 -10 11 -10 5 0 7 5 4 10 -3 6 -8 10 -11 10 -2 0
-4 -4 -4 -10z"/>
</g>
</svg>
